<svg width="120" height="40" viewBox="0 0 120 40" fill="none" xmlns="http://www.w3.org/2000/svg">
  <!-- Brain icon -->
  <path d="M25 10C21.5 10 18.5 12.5 18 16C17.5 12.5 14.5 10 11 10C6.5 10 3 13.5 3 18C3 22.5 6.5 26 11 26H18H25C29.5 26 33 22.5 33 18C33 13.5 29.5 10 25 10Z" fill="url(#paint0_linear)" />
  
  <!-- Brainwave line -->
  <path d="M38 20C38 20 42 15 46 20C50 25 54 15 58 20C62 25 66 15 70 20C74 25 78 15 82 20" stroke="url(#paint1_linear)" stroke-width="2" stroke-linecap="round" />
  
  <!-- Text -->
  <path d="M40 32H44.5C46.5 32 48 30.5 48 28.5C48 26.5 46.5 25 44.5 25H40V32ZM42 27H44.5C45.3 27 46 27.7 46 28.5C46 29.3 45.3 30 44.5 30H42V27Z" fill="currentColor" />
  <path d="M50 25H52V32H50V25Z" fill="currentColor" />
  <path d="M54 25H56V30H60V32H54V25Z" fill="currentColor" />
  <path d="M62 25H68V27H64V27.5H67V29.5H64V30H68V32H62V25Z" fill="currentColor" />
  <path d="M70 25H72V28H75V25H77V32H75V30H72V32H70V25Z" fill="currentColor" />
  <path d="M79 25H81V32H79V25Z" fill="currentColor" />
  <path d="M83 25H85L88 29V25H90V32H88L85 28V32H83V25Z" fill="currentColor" />
  
  <!-- Gradient definitions -->
  <defs>
    <linearGradient id="paint0_linear" x1="3" y1="18" x2="33" y2="18" gradientUnits="userSpaceOnUse">
      <stop stop-color="#7C3AED" />
      <stop offset="1" stop-color="#4F46E5" />
    </linearGradient>
    <linearGradient id="paint1_linear" x1="38" y1="20" x2="82" y2="20" gradientUnits="userSpaceOnUse">
      <stop stop-color="#7C3AED" />
      <stop offset="1" stop-color="#4F46E5" />
    </linearGradient>
  </defs>
</svg>