<svg width="1200" height="630" viewBox="0 0 1200 630" fill="none" xmlns="http://www.w3.org/2000/svg">
  <!-- Background gradient -->
  <rect width="1200" height="630" fill="url(#paint0_linear)" />
  
  <!-- Brain icon -->
  <path d="M400 250C380 250 365 262.5 362.5 280C360 262.5 345 250 325 250C302.5 250 285 267.5 285 290C285 312.5 302.5 330 325 330H362.5H400C422.5 330 440 312.5 440 290C440 267.5 422.5 250 400 250Z" fill="url(#paint1_linear)" />
  
  <!-- Brainwave line -->
  <path d="M460 290C460 290 480 260 500 290C520 320 540 260 560 290C580 320 600 260 620 290C640 320 660 260 680 290" stroke="url(#paint2_linear)" stroke-width="6" stroke-linecap="round" />
  
  <!-- Text -->
  <text x="285" y="400" fill="white" font-family="Arial" font-weight="bold" font-size="72">Clervio</text>
  <text x="285" y="460" fill="white" opacity="0.8" font-family="Arial" font-size="32">Behavioral Intelligence Platform</text>
  
  <!-- Tagline -->
  <text x="285" y="520" fill="white" opacity="0.6" font-family="Arial" font-size="24">Measure human depth — not just digital actions</text>
  
  <!-- Gradient definitions -->
  <defs>
    <linearGradient id="paint0_linear" x1="0" y1="0" x2="1200" y2="630" gradientUnits="userSpaceOnUse">
      <stop stop-color="#0F172A" />
      <stop offset="1" stop-color="#1E293B" />
    </linearGradient>
    <linearGradient id="paint1_linear" x1="285" y1="290" x2="440" y2="290" gradientUnits="userSpaceOnUse">
      <stop stop-color="#7C3AED" />
      <stop offset="1" stop-color="#4F46E5" />
    </linearGradient>
    <linearGradient id="paint2_linear" x1="460" y1="290" x2="680" y2="290" gradientUnits="userSpaceOnUse">
      <stop stop-color="#7C3AED" />
      <stop offset="1" stop-color="#4F46E5" />
    </linearGradient>
  </defs>
</svg>